<?xml version="1.0" encoding="UTF-8" standalone="no"?><!DOCTYPE svg PUBLIC "-//W3C//DTD SVG 1.1//EN" "http://www.w3.org/Graphics/SVG/1.1/DTD/svg11.dtd"><svg width="100%" height="100%" viewBox="0 0 138 135" version="1.1" xmlns="http://www.w3.org/2000/svg" xmlns:xlink="http://www.w3.org/1999/xlink" xml:space="preserve" xmlns:serif="http://www.serif.com/" style="fill-rule:evenodd;clip-rule:evenodd;stroke-miterlimit:10;"><path d="M122.046,32.786c-0.737,-2.359 -2.507,-4.276 -4.719,-5.456l-44.978,-21.531c-1.18,-0.589 -2.507,-0.737 -3.687,-0.737c-1.18,0 -2.507,0 -3.687,0.295l-44.978,21.678c-2.212,1.032 -3.834,2.949 -4.424,5.456l-11.06,48.518c-0.442,2.507 0.147,5.014 1.622,7.078l31.116,38.49c1.77,1.769 4.277,2.949 6.784,3.097l49.549,0c2.655,0.294 5.162,-0.885 6.784,-3.097l31.116,-38.49c1.475,-2.064 2.064,-4.571 1.77,-7.078l-11.208,-48.223Z" style="fill:#fff;fill-rule:nonzero;stroke:#fff;stroke-width:7.37px;"/><path d="M122.046,32.786c-0.737,-2.359 -2.507,-4.276 -4.719,-5.456l-44.978,-21.531c-1.18,-0.589 -2.507,-0.737 -3.687,-0.737c-1.18,0 -2.507,0 -3.687,0.295l-44.978,21.678c-2.212,1.032 -3.834,2.949 -4.424,5.456l-11.06,48.518c-0.442,2.507 0.147,5.014 1.622,7.078l31.116,38.49c1.77,1.769 4.277,2.949 6.784,3.097l49.549,0c2.655,0.294 5.162,-0.885 6.784,-3.097l31.116,-38.49c1.475,-2.064 2.064,-4.571 1.77,-7.078l-11.208,-48.223Z" style="fill:#326de6;fill-rule:nonzero;"/><path d="M115.115,79.092c-0.148,0 -0.295,0 -0.295,-0.148c0,-0.147 -0.295,-0.147 -0.59,-0.147c-0.59,-0.148 -1.18,-0.148 -1.77,-0.148c-0.295,0 -0.589,0 -0.884,-0.147l-0.148,0c-1.622,-0.148 -3.392,-0.443 -5.014,-0.885c-0.442,-0.148 -0.885,-0.59 -1.032,-1.032c0.147,0 0,0 0,0l-1.18,-0.295c0.59,-4.277 0.295,-8.701 -0.59,-12.978c-1.032,-4.276 -2.802,-8.405 -5.161,-12.092l0.885,-0.885l0,-0.147c0,-0.443 0.147,-1.033 0.442,-1.328c1.327,-1.179 2.654,-2.064 4.129,-2.949c0.295,-0.147 0.59,-0.295 0.885,-0.442c0.59,-0.295 1.032,-0.59 1.622,-0.885c0.148,-0.148 0.295,-0.148 0.443,-0.295c0.147,-0.148 0,-0.148 0,-0.295c1.327,-1.032 1.622,-2.802 0.589,-4.129c-0.442,-0.59 -1.327,-1.032 -2.064,-1.032c-0.737,0 -1.475,0.294 -2.065,0.737l-0.147,0.147c-0.148,0.148 -0.295,0.295 -0.443,0.295c-0.442,0.443 -0.884,0.885 -1.179,1.328c-0.148,0.294 -0.443,0.442 -0.59,0.589c-1.032,1.18 -2.36,2.36 -3.687,3.245c-0.295,0.147 -0.59,0.295 -0.885,0.295c-0.147,0 -0.442,0 -0.59,-0.148l-0.147,0l-1.18,0.738c-1.18,-1.18 -2.507,-2.36 -3.687,-3.54c-5.456,-4.276 -12.24,-6.931 -19.171,-7.668l-0.147,-1.18l0,0.148c-0.442,-0.295 -0.59,-0.738 -0.737,-1.18c0,-1.622 0,-3.244 0.295,-5.014l0,-0.148c0,-0.295 0.147,-0.589 0.147,-0.884c0.147,-0.59 0.147,-1.18 0.295,-1.77l0,-0.885c0.147,-1.475 -1.032,-2.949 -2.507,-3.097c-0.885,-0.147 -1.77,0.295 -2.507,1.033c-0.59,0.589 -0.885,1.327 -0.885,2.064l0,0.737c0,0.59 0.148,1.18 0.295,1.77c0.148,0.295 0.148,0.59 0.148,0.885l0,0.147c0.295,1.623 0.295,3.245 0.295,5.014c-0.148,0.443 -0.295,0.885 -0.738,1.18l0,0.295l-0.147,1.18c-1.622,0.147 -3.245,0.442 -5.014,0.737c-6.931,1.475 -13.272,5.162 -18.139,10.323l-0.885,-0.59l-0.147,0c-0.148,0 -0.295,0.148 -0.59,0.148c-0.295,0 -0.59,-0.148 -0.885,-0.295c-1.327,-1.033 -2.654,-2.212 -3.687,-3.392c-0.147,-0.295 -0.442,-0.443 -0.589,-0.59c-0.443,-0.442 -0.738,-0.885 -1.18,-1.327c-0.148,-0.148 -0.295,-0.148 -0.443,-0.295l-0.147,-0.148c-0.59,-0.442 -1.327,-0.737 -2.065,-0.737c-0.885,0 -1.622,0.295 -2.064,1.032c-0.885,1.328 -0.59,3.097 0.59,4.129c0.147,0 0.147,0.148 0.147,0.148c0,0 0.295,0.295 0.442,0.295c0.443,0.295 1.033,0.59 1.623,0.885c0.295,0.147 0.59,0.295 0.884,0.442c1.475,0.885 2.95,1.77 4.13,2.949c0.295,0.295 0.589,0.885 0.442,1.328l0,-0.148l0.885,0.885c-0.148,0.295 -0.295,0.442 -0.443,0.737c-4.571,7.226 -6.488,15.78 -5.161,24.185l-1.18,0.295c0,0.148 -0.147,0.148 -0.147,0.148c-0.148,0.442 -0.59,0.737 -1.033,1.032c-1.622,0.442 -3.244,0.737 -5.013,0.885c-0.295,0 -0.59,0 -0.885,0.147c-0.59,0 -1.18,0.148 -1.77,0.148c-0.147,0 -0.295,0.147 -0.59,0.147c-0.147,0 -0.147,0 -0.295,0.148c-1.622,0.295 -2.654,1.769 -2.359,3.391c0.295,1.328 1.622,2.212 2.949,2.065c0.295,0 0.443,0 0.738,-0.147c0.147,0 0.147,0 0.147,-0.148c0,-0.147 0.442,0 0.59,0c0.59,-0.147 1.18,-0.442 1.622,-0.59c0.295,-0.147 0.59,-0.295 0.885,-0.295l0.147,0c1.622,-0.59 3.097,-1.032 4.867,-1.327l0.147,0c0.443,0 0.885,0.148 1.18,0.442c0.147,0 0.147,0.148 0.147,0.148l1.328,-0.148c2.212,6.784 6.341,12.83 12.092,17.254c1.327,1.033 2.507,1.917 3.982,2.655l-0.738,1.032c0,0.148 0.148,0.148 0.148,0.148c0.295,0.442 0.295,1.032 0.147,1.474c-0.589,1.475 -1.474,2.95 -2.359,4.277l0,0.147c-0.148,0.295 -0.295,0.443 -0.59,0.738c-0.295,0.295 -0.59,0.884 -1.032,1.474c-0.148,0.148 -0.148,0.295 -0.295,0.443c0,0 0,0.147 -0.148,0.147c-0.737,1.475 -0.147,3.245 1.18,3.982c0.295,0.147 0.737,0.295 1.032,0.295c1.18,0 2.212,-0.738 2.802,-1.77c0,0 0,-0.147 0.148,-0.147c0,-0.148 0.147,-0.295 0.295,-0.443c0.147,-0.59 0.442,-1.032 0.59,-1.622l0.295,-0.885c0.442,-1.622 1.179,-3.097 1.917,-4.571c0.295,-0.443 0.737,-0.738 1.179,-0.885c0.148,0 0.148,0 0.148,-0.147l0.59,-1.18c4.129,1.622 8.405,2.359 12.83,2.359c2.654,0 5.308,-0.295 7.963,-1.032c1.622,-0.295 3.244,-0.885 4.719,-1.327l0.59,1.032c0.147,0 0.147,0 0.147,0.148c0.443,0.147 0.885,0.442 1.18,0.884c0.737,1.475 1.475,2.95 1.917,4.572l0,0.147l0.295,0.885c0.147,0.59 0.295,1.18 0.59,1.622c0.147,0.148 0.147,0.295 0.295,0.443c0,0 0,0.147 0.147,0.147c0.59,1.032 1.622,1.77 2.802,1.77c0.443,0 0.738,-0.148 1.18,-0.295c0.59,-0.295 1.18,-0.885 1.327,-1.622c0.148,-0.738 0.148,-1.475 -0.147,-2.212c0,-0.148 -0.148,-0.148 -0.148,-0.148c0,-0.147 -0.147,-0.295 -0.295,-0.442c-0.295,-0.59 -0.59,-1.032 -1.032,-1.475c-0.147,-0.295 -0.295,-0.442 -0.59,-0.737l0,-0.295c-1.032,-1.327 -1.769,-2.802 -2.359,-4.277c-0.148,-0.442 -0.148,-1.032 0.147,-1.474c0,-0.148 0.148,-0.148 0.148,-0.148l-0.443,-1.18c7.521,-4.571 13.272,-11.65 15.927,-20.055l1.18,0.147c0.147,0 0.147,-0.147 0.147,-0.147c0.295,-0.295 0.737,-0.443 1.18,-0.443l0.147,0c1.622,0.295 3.245,0.737 4.719,1.327l0.148,0c0.295,0.148 0.59,0.295 0.885,0.295c0.589,0.295 1.032,0.59 1.622,0.738c0.147,0 0.295,0.147 0.59,0.147c0.147,0 0.147,0 0.295,0.148c0.294,0.147 0.442,0.147 0.737,0.147c1.327,0 2.507,-0.885 2.949,-2.065c-0.147,-1.622 -1.327,-2.801 -2.654,-3.096Zm-42.619,-4.572l-3.981,1.917l-3.982,-1.917l-1.032,-4.277l2.802,-3.539l4.424,0l2.802,3.539l-1.033,4.277Zm24.038,-9.585c0.737,3.096 0.885,6.193 0.59,9.29l-14.01,-3.982c-1.327,-0.294 -2.065,-1.622 -1.77,-2.949c0.148,-0.442 0.295,-0.737 0.59,-1.032l11.06,-10.028c1.623,2.654 2.802,5.604 3.54,8.701Zm-7.964,-14.157l-12.092,8.553c-1.032,0.59 -2.507,0.442 -3.244,-0.59c-0.295,-0.295 -0.443,-0.59 -0.443,-1.032l-0.885,-14.895c6.489,0.738 12.24,3.539 16.664,7.964Zm-26.692,-7.521l2.95,-0.59l-0.737,14.747c0,1.327 -1.18,2.359 -2.507,2.359c-0.443,0 -0.738,-0.147 -1.18,-0.295l-12.24,-8.7c3.834,-3.687 8.553,-6.342 13.714,-7.521Zm-17.991,12.977l10.913,9.733c1.032,0.885 1.18,2.359 0.295,3.392c-0.295,0.442 -0.59,0.59 -1.18,0.737l-14.304,4.129c-0.443,-6.194 1.032,-12.535 4.276,-17.991Zm-2.507,24.922l14.6,-2.507c1.179,0 2.359,0.738 2.507,1.917c0.147,0.443 0.147,1.033 -0.148,1.475l-5.604,13.567c-5.161,-3.392 -9.29,-8.553 -11.355,-14.452Zm33.476,18.286c-2.065,0.443 -4.129,0.738 -6.341,0.738c-3.097,0 -6.342,-0.59 -9.291,-1.475l7.226,-13.125c0.737,-0.885 1.917,-1.18 2.949,-0.59c0.443,0.295 0.738,0.59 1.18,1.033l7.079,12.829c-0.885,0.148 -1.77,0.295 -2.802,0.59Zm17.991,-12.829c-2.212,3.539 -5.309,6.636 -8.848,8.848l-5.751,-13.862c-0.295,-1.18 0.294,-2.36 1.327,-2.802c0.442,-0.148 0.885,-0.295 1.327,-0.295l14.747,2.507c-0.737,2.064 -1.622,3.981 -2.802,5.604Z" style="fill:#fff;fill-rule:nonzero;"/></svg>