<?xml version="1.0" encoding="UTF-8" standalone="no"?><!DOCTYPE svg PUBLIC "-//W3C//DTD SVG 1.1//EN" "http://www.w3.org/Graphics/SVG/1.1/DTD/svg11.dtd"><svg width="100%" height="100%" viewBox="0 0 2500 575" version="1.1" xmlns="http://www.w3.org/2000/svg" xmlns:xlink="http://www.w3.org/1999/xlink" xml:space="preserve" xmlns:serif="http://www.serif.com/" style="fill-rule:evenodd;clip-rule:evenodd;stroke-linejoin:round;stroke-miterlimit:2;"><path d="M863.245,420.393c-88.161,0 -132.458,-63.411 -132.458,-133.762c0,-69.92 46.034,-132.892 133.327,-132.892c33.44,0 57.326,7.383 77.738,20.411l-25.189,41.258c-14.332,-9.12 -29.966,-14.766 -53.418,-14.766c-47.337,0 -72.526,37.783 -72.526,84.687c0,48.21 24.32,88.16 73.395,88.16c27.794,0 44.297,-9.55 57.76,-19.543l23.018,39.525c-13.029,11.722 -43.864,26.922 -81.647,26.922Zm187.179,-158.082c-28.229,0 -37.349,23.886 -37.349,58.629c0,34.744 11.292,59.498 39.521,59.498c28.663,0 38.217,-23.452 38.217,-58.195c-0.434,-34.743 -11.726,-59.932 -40.389,-59.932Zm0.869,158.082c-66.012,0 -94.675,-49.509 -94.675,-98.154c0,-48.641 28.663,-99.453 94.675,-99.453c66.012,0 95.978,49.075 95.978,97.716c-0.434,48.21 -29.532,99.891 -95.978,99.891Zm178.927,-192.825l0,120.733c0,18.674 6.515,27.794 24.325,27.794c19.104,0 33.436,-18.24 37.349,-22.583l0,-125.944l52.983,0l0,132.893c0,24.754 2.606,43.867 5.212,55.155l-52.554,0c-1.733,-5.212 -3.474,-17.372 -3.904,-25.189c-9.993,13.028 -29.536,29.531 -60.801,29.531c-41.691,0 -56.457,-26.491 -56.457,-61.234l0,-131.59l53.852,0l0,0.434l-0.005,0Zm245.374,192.825c-60.8,0 -98.149,-39.525 -98.149,-98.584c0,-63.406 42.126,-99.018 99.886,-99.018c30.401,0 48.641,9.12 57.761,14.766l-16.937,36.48c-8.248,-5.211 -20.408,-10.857 -39.087,-10.857c-29.531,0 -45.161,23.017 -45.161,57.326c0,34.305 14.761,59.063 46.469,59.063c21.714,0 34.304,-7.817 39.95,-11.291l16.069,35.607c-8.686,5.65 -26.058,16.508 -60.801,16.508Zm203.248,-4.343l0,-121.167c0,-18.675 -6.514,-27.795 -24.32,-27.795c-19.109,0 -33.875,17.806 -37.784,22.583l0,125.945l-52.983,0l0,-277.946l52.983,0l0,112.047c9.555,-10.423 27.795,-26.926 58.63,-26.926c41.696,0 56.457,26.491 56.457,61.235l0,131.59l-52.983,0l0,0.434Zm149.396,-41.258c3.474,1.303 11.291,3.905 25.188,3.905c27.361,0 44.298,-19.978 44.298,-58.63c0,-34.743 -11.726,-55.589 -38.652,-55.589c-15.634,0 -27.79,9.989 -30.834,13.898l0,96.416Zm0,-236.688l0,104.23c8.685,-8.686 25.188,-19.543 46.034,-19.543c46.908,0 79.91,32.137 79.91,97.281c0,64.709 -43.429,100.325 -100.756,100.325c-42.99,0 -69.047,-10.857 -78.606,-15.2l0,-267.527l53.418,0l0,0.434Zm252.322,194.996l-6.514,0c-29.093,0 -49.505,8.686 -49.505,29.966c0,13.463 10.857,19.105 22.583,19.105c17.806,0 28.229,-10.419 33.436,-15.635l0,-33.436Zm5.646,82.95c-1.737,-4.782 -2.61,-14.336 -3.04,-19.982c-8.252,9.989 -26.058,24.755 -52.554,24.755c-32.133,0.004 -56.887,-19.105 -56.887,-52.979c0,-49.075 50.377,-66.877 100.321,-66.877l6.514,0l0,-10.427c0,-15.634 -6.514,-25.189 -29.962,-25.189c-24.324,0 -40.823,12.595 -47.771,17.372l-23.018,-32.138c11.292,-10.423 36.476,-27.36 76.865,-27.36c52.115,0 76.87,19.977 76.87,70.355l0,66.012c0,26.058 2.61,44.293 5.211,56.458l-52.549,0Zm142.881,4.343c-33.874,0 -55.589,-9.993 -67.315,-17.81l17.811,-36.915c7.378,5.216 25.618,15.639 46.464,15.639c19.543,0 30.401,-5.65 30.401,-16.069c0,-12.16 -21.276,-15.639 -48.207,-28.668c-26.057,-12.59 -41.257,-26.921 -41.257,-55.589c0,-35.611 28.229,-58.195 71.223,-58.195c32.134,0 52.115,9.989 60.801,14.766l-18.24,36.046c-7.383,-4.343 -22.153,-11.725 -39.955,-11.725c-17.801,0 -25.623,6.08 -25.623,16.068c0,12.16 17.372,15.2 39.086,23.886c29.536,12.165 50.812,26.058 50.812,57.327c-0.868,40.393 -29.532,61.239 -76.001,61.239Zm218.448,-121.601c-0.434,-20.846 -8.686,-37.784 -31.264,-37.784c-20.851,0 -33.011,13.463 -36.481,37.784l67.745,0Zm-19.977,82.515c25.623,0 39.52,-8.252 49.075,-13.029l16.937,33.875c-12.594,6.948 -31.703,18.24 -70.789,18.24c-63.411,0 -99.453,-39.525 -99.453,-99.887c0,-59.932 41.258,-97.715 93.807,-97.715c59.498,0 88.165,41.257 81.651,111.612l-118.566,0c2.172,28.229 16.938,46.904 47.338,46.904Z" style="fill:#fff;fill-rule:nonzero;"/><path d="M287.811,0c-158.516,0 -287.5,128.55 -287.5,287.5c0,158.516 128.55,287.5 287.5,287.5c158.516,0 287.5,-128.55 287.5,-287.5c0,-158.95 -128.984,-287.5 -287.5,-287.5Zm194.128,337.878c0,17.371 -9.989,32.571 -29.532,36.046c-33.875,6.075 -105.098,9.554 -164.596,9.554c-59.498,0 -130.721,-3.479 -164.596,-9.554c-19.543,-3.475 -29.532,-18.675 -29.532,-36.046l0,-112.047c0,-17.372 13.463,-33.441 29.532,-36.046c9.989,-1.737 33.44,-3.475 51.68,-3.475c6.949,0 12.595,5.212 12.595,13.463l0,78.607l100.755,-2.172l100.755,2.172l0,-78.607c0,-8.251 5.646,-13.463 12.595,-13.463c18.24,0 41.692,1.738 51.68,3.475c16.503,2.605 29.532,18.674 29.532,36.046c-0.868,36.914 -0.868,74.698 -0.868,112.047Z" style="fill:#ed2226;fill-rule:nonzero;"/></svg>