<?xml version="1.0" encoding="UTF-8" standalone="no"?><!DOCTYPE svg PUBLIC "-//W3C//DTD SVG 1.1//EN" "http://www.w3.org/Graphics/SVG/1.1/DTD/svg11.dtd"><svg width="100%" height="100%" viewBox="0 0 601 163" version="1.1" xmlns="http://www.w3.org/2000/svg" xmlns:xlink="http://www.w3.org/1999/xlink" xml:space="preserve" xmlns:serif="http://www.serif.com/" style="fill-rule:evenodd;clip-rule:evenodd;stroke-linejoin:round;stroke-miterlimit:2;"><g id="g3018"><clipPath id="_clip1"><rect x="0" y="0" width="4802" height="1298.75"/></clipPath><g clip-path="url(#_clip1)"><path id="path3024" d="M115.622,69.484l-50.446,0c-1.302,0 -2.357,1.056 -2.357,2.359l0,24.663c0,1.301 1.055,2.361 2.357,2.361l19.679,0l0,30.642c0,0 -4.42,1.506 -16.635,1.506c-14.412,0 -34.546,-5.267 -34.546,-49.539c0,-44.282 20.965,-50.109 40.647,-50.109c17.037,0 24.378,3 29.048,4.445c1.467,0.45 2.825,-1.011 2.825,-2.313l5.627,-23.83c0,-0.609 -0.206,-1.343 -0.901,-1.842c-1.897,-1.352 -13.468,-7.827 -42.7,-7.827c-33.677,0 -68.22,14.327 -68.22,83.203c0,68.877 39.549,79.141 72.878,79.141c27.594,0 44.335,-11.793 44.335,-11.793c0.69,-0.381 0.764,-1.345 0.764,-1.787l0,-76.921c0,-1.303 -1.054,-2.359 -2.355,-2.359" style="fill:#fff;fill-rule:nonzero;"/><path id="path3026" d="M375.594,8.252c0,-1.312 -1.04,-2.371 -2.341,-2.371l-28.404,0c-1.298,0 -2.353,1.059 -2.353,2.371c0,0.007 0.008,54.891 0.008,54.891l-44.274,0l0,-54.891c0,-1.312 -1.045,-2.371 -2.344,-2.371l-28.402,0c-1.293,0 -2.346,1.059 -2.346,2.371l0,148.629c0,1.311 1.053,2.379 2.346,2.379l28.402,0c1.299,0 2.344,-1.068 2.344,-2.379l0,-63.573l44.274,0c0,0 -0.078,63.568 -0.078,63.573c0,1.311 1.054,2.379 2.353,2.379l28.471,0c1.301,0 2.341,-1.068 2.344,-2.379l0,-148.629" style="fill:#fff;fill-rule:nonzero;"/><path id="path3028" d="M169.22,27.756c0,-10.227 -8.2,-18.492 -18.316,-18.492c-10.106,0 -18.313,8.265 -18.313,18.492c0,10.217 8.207,18.504 18.313,18.504c10.116,0 18.316,-8.287 18.316,-18.504" style="fill:#fff;fill-rule:nonzero;"/><path id="path3030" d="M167.189,125.529l0,-68.608c0,-1.302 -1.052,-2.367 -2.35,-2.367l-28.314,0c-1.299,0 -2.461,1.339 -2.461,2.642l0,98.294c0,2.889 1.8,3.747 4.13,3.747l25.51,0c2.799,0 3.485,-1.373 3.485,-3.793l0,-29.915" style="fill:#fff;fill-rule:nonzero;"/><path id="path3032" d="M483.54,54.777l-28.186,0c-1.293,0 -2.345,1.066 -2.345,2.377l0,72.877c0,0 -7.16,5.239 -17.324,5.239c-10.163,0 -12.86,-4.611 -12.86,-14.563l0,-63.553c0,-1.311 -1.05,-2.377 -2.344,-2.377l-28.606,0c-1.291,0 -2.349,1.066 -2.349,2.377l0,68.366c0,29.558 16.474,36.789 39.136,36.789c18.592,0 33.582,-10.271 33.582,-10.271c0,0 0.713,5.412 1.036,6.054c0.324,0.64 1.165,1.287 2.074,1.287l18.198,-0.08c1.292,0 2.349,-1.068 2.349,-2.373l-0.009,-99.772c0,-1.311 -1.053,-2.377 -2.352,-2.377" style="fill:#fff;fill-rule:nonzero;"/><path id="path3034" d="M549.459,135.18c-9.777,-0.298 -16.408,-4.734 -16.408,-4.734l0,-47.068c0,0 6.543,-4.009 14.569,-4.726c10.15,-0.909 19.93,2.157 19.93,26.369c0,25.533 -4.414,30.571 -18.091,30.159Zm11.117,-83.742c-16.008,0 -26.897,7.143 -26.897,7.143l0,-50.329c0,-1.312 -1.049,-2.371 -2.344,-2.371l-28.484,0c-1.295,0 -2.347,1.059 -2.347,2.371l0,148.629c0,1.311 1.052,2.379 2.351,2.379l19.763,0c0.89,0 1.563,-0.459 2.061,-1.262c0.491,-0.799 1.2,-6.853 1.2,-6.853c0,0 11.647,11.038 33.696,11.038c25.885,0 40.73,-13.131 40.73,-58.944c0,-45.814 -23.709,-51.801 -39.729,-51.801" style="fill:#fff;fill-rule:nonzero;"/><path id="path3036" d="M248.823,54.54l-21.307,0c0,0 -0.032,-28.141 -0.032,-28.148c0,-1.065 -0.549,-1.597 -1.78,-1.597l-29.035,0c-1.129,0 -1.735,0.496 -1.735,1.581l0,29.087c0,0 -14.55,3.513 -15.534,3.797c-0.98,0.284 -1.701,1.187 -1.701,2.265l0,18.279c0,1.314 1.05,2.374 2.348,2.374l14.887,0l0,43.973c0,32.661 22.91,35.87 38.37,35.87c7.063,0 15.513,-2.269 16.908,-2.784c0.844,-0.31 1.334,-1.183 1.334,-2.131l0.024,-20.108c0,-1.311 -1.108,-2.372 -2.355,-2.372c-1.241,0 -4.418,0.505 -7.688,0.505c-10.465,0 -14.011,-4.866 -14.011,-11.164c0,-6.294 -0.001,-41.789 -0.001,-41.789l21.307,0c1.299,0 2.35,-1.06 2.35,-2.374l0,-22.895c0,-1.312 -1.051,-2.369 -2.35,-2.369" style="fill:#fff;fill-rule:nonzero;"/></g></g></svg>