<?xml version="1.0" encoding="utf-8"?>
<!-- Generator: Adobe Illustrator 23.0.1, SVG Export Plug-In . SVG Version: 6.00 Build 0)  -->
<svg version="1.1" id="Layer_1" xmlns="http://www.w3.org/2000/svg" xmlns:xlink="http://www.w3.org/1999/xlink" x="0px" y="0px"
	 viewBox="0 0 864 864" style="enable-background:new 0 0 864 864;" xml:space="preserve">
<style type="text/css">
	.st0{fill:#D9E021;}
</style>
<g>
	<path d="M534.64,201.1c11.05-11.45,22.06-22.94,33.22-34.28c1.47-1.49,3.75-2.19,5.65-3.25c0.6,1.95,1.61,3.88,1.73,5.86
		c0.26,4.43,0.08,8.88,0.08,13.28c4.64,0,9.09-0.12,13.52,0.06c1.68,0.07,3.32,0.85,4.98,1.31c-0.64,1.81-0.76,4.22-2.02,5.31
		c-5.14,4.43-10.23,9.18-16.12,12.39c-4.89,2.67-6,5.68-5.45,10.69c1.99,18.04-0.2,35.5-7.76,52.17c-1.43,3.15-2.17,6.6-3.3,9.89
		c-3.1,9.04-8.39,16.71-15.68,22.76c-10.36,8.6-21.03,16.81-31.57,25.19c-0.76,0.6-1.49,1.23-2.65,2.19
		c3.36,1.26,6.46,1.97,9.01,3.56c1.53,0.96,2.18,3.31,3.23,5.04c-1.5,0.72-2.94,1.63-4.51,2.11c-3.14,0.95-6.35,1.65-9.62,3.52
		c1.28,0.43,2.59,0.79,3.82,1.32c2.11,0.91,4.58,1.5,6.15,3.01c1.63,1.55,2.38,4.03,3.51,6.1c-2.17,0.88-4.27,2.17-6.53,2.56
		c-5.89,1.02-11.82,2.14-17.77,2.35c-21.64,0.75-37.35-9.49-47.68-27.81c-6.49-11.51-10.3-24.19-6.06-37.45
		c5.21-16.26,14.02-30.61,26.86-41.97c8.95-7.92,18.75-14.89,28.2-22.25c1.17-0.91,2.49-1.66,3.83-2.3
		c5.56-2.64,9.79-6.4,12.72-12.05c3.05-5.88,6.9-11.37,10.76-16.78c0.95-1.33,3.29-1.65,4.99-2.44c0.58,1.41,1.29,2.79,1.69,4.25
		c0.42,1.53,0.53,3.15,0.78,4.73C533.32,200.48,533.98,200.79,534.64,201.1z M472.5,278.81c-1.09,0.58-2.33,0.8-2.64,1.46
		c-2.96,6.27-6.04,12.52-8.45,19.02c-0.65,1.75,0.24,5.57,1.57,6.27c6.24,3.3,10.51,10.3,20.21,6.71
		c15.78-5.85,30.7-12.5,42.42-24.86c3.27-3.46,6.51-7.3,8.5-11.56c6.64-14.22,11.52-29.03,12.85-44.82
		c0.37-4.47-1.02-5.88-4.97-3.83c-8.83,4.59-17.37,9.75-26.18,14.39c-4.36,2.3-4.79,5.5-4.17,9.9c1.45,10.37,2.49,20.8,3.61,31.21
		c0.42,3.94-0.95,7.02-4.55,9.13c-4.55,2.67-9.01,5.51-13.4,8.44c-4.75,3.16-10.12,3.98-15.15,2.18c-4.39-1.57-7.58-5.15-7.88-10.57
		C474.03,287.65,473.15,283.46,472.5,278.81z M492.56,276.29c1.32-7.42,2.64-14.84,4.12-23.11
		C486.7,258.08,484.98,267.18,492.56,276.29z"/>
	<path d="M292.67,209.12c1.2-2.98,1.87-5.42,3.13-7.5c0.92-1.52,2.62-3.54,3.98-3.54c1.49,0,3.3,1.81,4.4,3.27
		c2.08,2.78,3.7,5.9,5.61,8.82c8.21,12.58,21.33,19.92,31.98,29.91c8.74,8.2,18.15,15.77,26.15,24.63
		c11.31,12.52,20.18,26.72,19.06,44.57c-0.38,5.98-2.17,12.2-4.72,17.65c-6.56,14-15.51,26.24-31.08,31.23
		c-10.72,3.44-21.87,4.12-33.06,2.1c-0.81-0.15-1.76-0.33-2.32-0.84c-1.74-1.6-3.32-3.37-4.97-5.08c1.96-1.27,3.77-2.97,5.91-3.72
		c3.06-1.07,6.37-1.45,9.82-3.13c-2.75-1.25-5.72-2.17-8.19-3.83c-2.44-1.65-4.37-4.04-6.53-6.11c2.13-1.73,4.25-3.47,6.74-5.49
		c-3.59-2.16-7.73-4.65-11.86-7.15c-12.88-7.82-23.14-18.35-31.95-30.47c-9.43-12.98-12.82-28.1-15.19-43.42
		c-1.49-9.66-1.31-19.57-2.26-29.34c-0.22-2.31-1.43-5.07-3.12-6.59c-4.33-3.87-9.33-6.97-13.74-10.77
		c-1.48-1.28-3.04-4.03-2.6-5.54c0.46-1.57,3.14-3.04,5.11-3.51c3.16-0.76,6.52-0.67,10.06-0.96c0-6.45-0.18-12.43,0.11-18.39
		c0.08-1.68,1.25-4.3,2.45-4.66c1.35-0.4,3.99,0.82,4.9,2.14c4.52,6.53,8.52,13.43,12.97,20.02
		C278.11,200.3,284.58,205.12,292.67,209.12z M281.02,234.89c0.76,8.15,0.17,14.83,2.15,20.63c5.14,15.07,11.16,29.87,23.9,40.66
		c3.28,2.78,6.06,6.16,9.02,9.31c8.53,9.07,18.72,14.16,31.42,12.73c3.37-0.38,7.44-0.73,9.8-2.73c7.82-6.64,8.64-20.92,2.04-30
		c-0.74,2.33-1.46,4.31-1.98,6.34c-1.07,4.14-1.87,8.35-3.07,12.44c-1.28,4.37-4.18,7.24-8.91,7.52
		c-14.22,0.84-26.82-6.95-27.02-24.35c-0.12-10.29,1.02-20.59,1.32-30.89c0.05-1.72-0.73-4.24-1.99-5.09
		c-5.25-3.5-10.61-6.98-16.35-9.53C295.12,239.14,288.42,237.39,281.02,234.89z M336.11,260.34c1.14,8.54-2.08,16.28,1.94,23.81
		C342.77,277.79,342.2,265.5,336.11,260.34z"/>
	<path d="M433.73,224.16c-0.67-4.63-1.18-8.87-1.92-13.08c-1.91-10.9,2.41-20.27,7.44-29.31c1.8-3.23,5.14-2.63,7.1,0.77
		c0.95,1.65,1.71,3.41,3.19,6.41c0.75-3.95,0.93-6.59,1.8-8.97c0.86-2.35,2.43-4.44,3.69-6.64c1.95,1.38,3.9,2.77,5.9,4.19
		c-0.27,0.38,0.07,0.12,0.03-0.08c-2.79-16.49,6.14-28.8,14.61-41.32c2.41-3.56,4.04-7.65,6.55-11.12c1.85-2.56,4.16-5.56,6.91-6.54
		c8.4-2.98,17.06-5.29,25.73-7.43c5.32-1.31,9.94-2.78,12.98-8.09c3.15-5.52,5.55-5.54,9.08-0.41c4.25,6.19,10.77,6.26,17.02,7.54
		c2.17,0.45,6.04,2.17,5.94,2.64c-0.65,3.08-1.36,7.08-3.57,8.71c-4.74,3.48-10.2,6.32-15.76,8.28c-6.08,2.14-12.63,2.95-18.95,4.44
		c-7.55,1.78-13.82,4.71-16.74,13.09c-1.55,4.46-4.12,9.69-11.4,9.99c0,5.26-0.14,10.68,0.03,16.1c0.24,7.52-0.97,9.72-7.8,12.82
		c0,0.55-0.22,1.29,0.03,1.8c3.37,6.83,1.66,12.26-1.54,19.37c-6.24,13.88-16.31,23.9-26.19,34.72
		c-8.67,9.49-16.24,20.26-17.21,34.11c-0.25,3.61-1.75,7.67-6.53,7.22c-1.97-0.19-4.64-2.04-5.42-3.83
		c-1.3-2.95-1.91-6.48-1.78-9.72c0.43-10.1-2.89-19.27-5.82-28.68c-1.73-5.56-1.91-11.66-2.3-17.56c-0.23-3.44,2-4.82,5.31-3.55
		C427.03,221.1,429.81,222.44,433.73,224.16z"/>
	<path d="M358.38,165.72c11.7,3.3,7.12,13.13,8.62,20.24c10.62,0.78,7.98,10.63,11.71,16.57c1.32-3.22,2.1-6.32,3.77-8.82
		c1.24-1.85,3.63-2.92,5.51-4.34c1.24,1.79,3.4,3.5,3.58,5.39c1.22,13.24,2.04,26.51,2.98,39.77c0.09,1.26,0.16,2.51,0.27,4.17
		c2.45-1.9,4.32-3.91,6.63-4.93c1.77-0.79,4.68-1.14,6.01-0.19c1.25,0.9,2.06,4.15,1.42,5.69c-6.53,15.78-5.36,32.68-7.65,49.07
		c-0.29,2.1-1.86,5.13-3.48,5.63c-1.82,0.56-5.19-0.6-6.45-2.17c-2.63-3.27-5.78-7.16-6.12-11.03
		c-1.21-13.91-8.26-23.83-18.85-32.05c-7.27-5.64-11.98-13.18-15.31-21.77c-1.25-3.23-4.1-5.8-5.92-8.86
		c-1.7-2.86-3.81-5.83-4.31-8.98c-1.02-6.37-1.25-12.59-5.01-18.49c-2.2-3.44-2.05-8.63-2.2-13.05c-0.16-4.83-1.19-8.32-6.5-9.66
		c-4.32-1.09-6.38-4.63-7.24-8.77c-0.77-3.67-3.68-5.35-5.94-7.89c-7.03-7.87-15.49-7.35-24.62-7.02
		c-8.58,0.31-15.85-3.23-20.96-10.53c-3.33-4.76-2.66-7.64,2.82-9.41c3.3-1.07,6.88-1.22,10.23-2.18c2.78-0.79,5.49-1.96,8.06-3.3
		c4.45-2.32,8.15-0.34,10.71,2.65c4.42,5.16,10.11,6.51,16.27,7.47c6.23,0.97,12.46,2.02,18.61,3.39
		c6.45,1.44,11.67,4.4,13.66,11.55c1.25,4.47,3.56,8.16,8.45,10.42C361.84,156.49,360.62,161.21,358.38,165.72z"/>
	<path d="M415.71,336.25c7.09,1.54,14.33,2.61,21.23,4.75c6.11,1.9,6.78,6.19,2.49,10.99c-0.66,0.74-1.55,1.38-1.95,2.25
		c-1.18,2.58-1.47,4.68,2.36,5.44c5.07,1,7.49,5.3,4.73,9.59c-2.4,3.73-5.91,7.42-9.81,9.34c-5.03,2.46-7.57,6.11-9.27,10.92
		c-0.72,2.04-1.09,4.29-2.2,6.07c-0.93,1.49-2.61,3.22-4.14,3.4c-1.19,0.15-3-1.68-3.89-3.05c-0.96-1.47-1.07-3.46-1.71-5.17
		c-1.62-4.37-4.07-7.66-9.02-9.05c-4.43-1.25-8.85-3.06-12.81-5.4c-12.18-7.19-12.82-22.68-1.36-31.09
		C397.8,339.78,406.11,336.64,415.71,336.25z"/>
	<path d="M240.76,299.11c3.08-5.14,5.44-9.69,8.39-13.82c2.85-4,4.53-3.78,6.75,0.55c3.55,6.95,7.18,13.9,10.12,21.11
		c0.98,2.4,1.03,6.28-0.29,8.33c-4.65,7.21-2.78,13.97,0.22,20.81c1.06,2.42,2.77,4.54,4.07,6.86c2.05,3.64,0.63,6.38-3.55,6.1
		c-2.54-0.17-5.2-1.2-7.45-2.48c-11.97-6.83-21.88-15.99-27.38-28.72c-2.98-6.88-4.08-14.6-5.75-22c-0.33-1.46,0.34-3.32,1.01-4.78
		c1.25-2.73,2.75-3.41,5.11-0.62C234.6,293.54,237.73,296.16,240.76,299.11z"/>
	<path d="M586.18,293.33c3.34-3.84,5.91-7.07,8.79-9.97c1.25-1.26,3.97-3,4.62-2.53c1.69,1.19,3.46,3.41,3.63,5.36
		c0.36,4.08,0.45,8.47-0.65,12.36c-3.91,13.84-10.65,26.11-22.14,35.25c-4.83,3.84-10.25,5.98-16.58,5.7
		c-5.4-0.24-6.48-1.67-3.91-6.35c3.03-5.51,6.38-10.86,9.52-16.31c0.73-1.27,1.2-2.7,1.77-4.04c-7.45-4.54-7.73-4.99-5.13-13.52
		c1.98-6.5,4.26-12.91,6.54-19.31c1.7-4.74,4.92-5.31,7.71-0.94c2.18,3.41,3.18,7.56,4.7,11.39
		C585.3,291,585.52,291.59,586.18,293.33z"/>
	<path d="M490.59,673.59c-0.67-1.36-3.48-2.4-5.31-2.32c-4.63,0.19-9.22,1.36-13.85,1.66c-15.1,0.97-30.21,2.03-45.33,2.49
		c-15.11,0.46-64.07,2.08-69.6,1.92c6.5,8.67,25.05,15.3,27.23,15.97c21.19,6.46,42.85,8.75,64.65,5.09
		c15.02-2.52,29.27-8,40.22-19.47C489.87,677.59,491.18,674.79,490.59,673.59z"/>
	<path d="M755.44,455.27c-3.08-12.86-6.79-25.26-17.4-34.57c-16.38-14.36-35.61-23.93-54.77-33.58c-7.8-3.93-16.6-5.9-24.31-9.96
		c-12.41-6.52-21.39-16.7-27.5-29.38c-0.65-1.34-2.27-2.22-3.43-3.32c-1.01,1.47-2.81,2.9-2.89,4.41c-0.21,4.3,0.05,8.67,0.54,12.96
		c1.99,17.5,9.64,31.88,24.8,41.26c9.73,6.02,20.04,11.17,30.33,16.19c5.73,2.8,8.67,6.34,8.42,13.02
		c-0.34,9.15,0.01,18.33,0.37,27.49c0.57,14.59-2.19,28.9-7.95,41.83c-7.01,15.72-16.12,30.64-25.53,45.12
		c-7.3,11.23-15.5,22.14-26.95,29.85c-20.7,13.94-41.38,27.89-63.54,39.51c-22.33,11.72-45.95,19.53-70.7,23.79
		c-19.93,3.43-39.95,6.54-60.25,6.59c-0.62,0-55.88,1.41-72.47-1.11c-20.49-3.11-40.62-7.26-59.88-15.02
		c-6.13-2.47-12.05-5.5-18.06-8.27l0.15,0.11c-21.11-4.12-39.65-13.61-55.55-27.89c-15.08-13.54-29.71-27.6-44.31-41.67
		c-14.48-13.96-23.71-30.93-26.2-50.98c-1.66-13.36-2.46-26.85-3.06-40.31c-0.26-5.93-0.34-12.4,1.71-17.78
		c5.39-14.08,14.26-25.47,29.4-30.52c12.42-4.15,23.07-11.03,31.6-21.05c5.32-6.25,6.17-14.29,1.86-19.89
		c-4.34,2.56-8.53,5.65-13.18,7.64c-14.56,6.25-29.5,11.18-45.27,13.71c-10.41,1.67-20.73,4.32-30.86,7.33
		c-13.83,4.11-23.13,13.84-30.05,26.17c-10.72,19.11-9.08,39.05-4.06,59.19c0.68,2.71,2.4,5.16,3.64,7.74
		c0.65-0.01,1.3-0.02,1.94-0.03c3.14-8.94,6.18-17.92,9.44-26.81c3.25-8.87,6.7-17.66,10.12-26.64c1.05,4.04,1.86,7.78,3.06,11.38
		c0.41,1.23,1.77,2.92,2.76,2.96c1.11,0.05,2.47-1.38,3.38-2.45c0.71-0.84,0.82-2.16,1.35-3.19c2.71-5.36,5.46-10.69,8.19-16.04
		c0.86,1.59,0.75,2.74,0.53,3.86c-3.74,18.64-6.28,37.46-3.92,56.41c1.4,11.31,2.92,23.2,7.59,33.36
		c5.62,12.23,13.34,23.51,20.78,34.88c5.88,6.93,11.64,13.97,17.45,20.95c3.41,4.1,6.86,8.22,10.38,12.31
		c3.59,3.38,7.19,6.78,10.84,10.22c0.31,0.05,0.69,0.02,0.96,0.25C240,636,314.21,660.23,314,660c3.66,0.49,32.52,6.12,35.8,6.27
		c22.57,1.06,45.14,2.14,67.72,2.98c24.61,0.91,48.9-2.62,72.95-6.98c14.14-2.56,27.75-7.88,41.72-11.51
		c27.33-7.09,53.75-16.69,79.19-28.84c10.17-4.86,20.47-9.78,28.24-18.47c8.43-9.42,16.85-18.84,25.45-28.1
		c11.12-11.97,20.71-25.04,25.47-40.76c5.4-17.81,9.61-35.98,14.48-53.96c2.56-9.46,5.42-18.85,8.46-29.4
		c4.91,8.9,9.06,16.66,13.48,24.25c0.86,1.48,2.79,2.34,4.22,3.48c1.04-1.39,2.4-2.65,3.03-4.2c0.6-1.47,0.66-3.27,0.55-4.9
		c-0.29-4.31-0.66-8.64-1.28-12.91c-0.85-5.91-1.95-11.79-2.95-17.69c2.42,0.65,3.76,1.61,4.87,2.79
		c4.78,5.1,9.41,10.34,14.29,15.33c0.96,0.98,2.86,1.61,4.19,1.42C754.61,458.71,755.7,456.33,755.44,455.27z"/>
</g>
<g>
	<path class="st0" d="M472.5,278.81c0.65,4.65,1.53,8.84,1.76,13.06c0.3,5.42,3.49,9,7.88,10.57c5.03,1.8,10.4,0.98,15.15-2.18
		c4.39-2.93,8.85-5.77,13.4-8.44c3.6-2.11,4.97-5.19,4.55-9.13c-1.12-10.41-2.16-20.84-3.61-31.21c-0.62-4.4-0.19-7.6,4.17-9.9
		c8.81-4.64,17.35-9.8,26.18-14.39c3.95-2.05,5.34-0.64,4.97,3.83c-1.32,15.8-6.21,30.61-12.85,44.82c-1.99,4.26-5.23,8.1-8.5,11.56
		c-11.71,12.36-26.63,19.01-42.42,24.86c-9.7,3.59-13.97-3.41-20.21-6.71c-1.33-0.7-2.21-4.53-1.57-6.27
		c2.4-6.49,5.48-12.74,8.45-19.02C470.17,279.61,471.4,279.38,472.5,278.81z"/>
	<path class="st0" d="M281.02,234.89c7.4,2.5,14.1,4.25,20.34,7.03c5.74,2.56,11.1,6.04,16.35,9.53c1.27,0.84,2.05,3.37,1.99,5.09
		c-0.31,10.3-1.44,20.6-1.32,30.89c0.2,17.4,12.8,25.19,27.02,24.35c4.73-0.28,7.63-3.16,8.91-7.52c1.2-4.1,2-8.31,3.07-12.44
		c0.52-2.03,1.25-4.01,1.98-6.34c6.59,9.09,5.78,23.37-2.04,30c-2.36,2-6.43,2.35-9.8,2.73c-12.7,1.43-22.89-3.66-31.42-12.73
		c-2.96-3.15-5.74-6.53-9.02-9.31c-12.73-10.78-18.75-25.58-23.9-40.66C281.19,249.72,281.78,243.04,281.02,234.89z"/>
</g>
</svg>
